<svg xmlns="http://www.w3.org/2000/svg" width="350" height="312.965" viewBox="0 0 350 312.965">
  <defs>
    <style>
      .cls-1 {
        fill: #e6e6e6;
      }

      .cls-2 {
        fill: #fd475d;
      }

      .cls-3, .cls-4 {
        fill: #fff;
      }

      .cls-4 {
        opacity: 0.37;
      }

      .cls-5 {
        fill: #3f3d56;
      }

      .cls-6 {
        fill: #ffb8b8;
      }

      .cls-7 {
        fill: #2c2c51;
      }

      .cls-8 {
        fill: #575a89;
      }

      .cls-9 {
        fill: #d0cde1;
      }
    </style>
  </defs>
  <g id="undraw_access_account_99n5" transform="translate(0 0)">
    <path id="Path_82" data-name="Path 82" class="cls-1" d="M244.686,613.583l-3.909-15.418a200.212,200.212,0,0,0-21.241-7.62l-.494,7.165-2-7.894C208.089,587.26,202,586.134,202,586.134s8.226,31.279,25.478,55.193l20.1,3.531-15.618,2.252a81.01,81.01,0,0,0,6.986,7.4c25.1,23.3,53.052,33.984,62.437,23.873s-3.352-37.193-28.449-60.489c-7.781-7.222-17.555-13.018-27.338-17.579Z" transform="translate(-202 -369.794)"/>
    <path id="Path_83" data-name="Path 83" class="cls-1" d="M346.072,552.422l4.623-15.219a200.168,200.168,0,0,0-14.244-17.5l-4.126,5.879,2.367-7.792c-6.341-6.815-10.973-10.927-10.973-10.927s-9.127,31.029-6.719,60.417l15.384,13.414-14.533-6.145A80.992,80.992,0,0,0,320,584.5c9.443,32.915,27.848,56.515,41.109,52.71s16.356-33.572,6.913-66.487c-2.927-10.2-8.3-20.218-14.316-29.179Z" transform="translate(-266.208 -325.377)"/>
    <path id="Path_84" data-name="Path 84" class="cls-1" d="M870.573,734.649l2.909-3.142a53.862,53.862,0,0,0-1.391-5.913l-1.69.938,1.489-1.608c-.734-2.4-1.372-3.936-1.372-3.936a51.643,51.643,0,0,0-8.73,13.84l2.148,5.057-2.8-3.2a21.8,21.8,0,0,0-.648,2.662c-1.583,9.08.1,16.959,3.757,17.6s7.908-6.206,9.491-15.286a28.7,28.7,0,0,0-.036-8.749Z" transform="translate(-570.619 -445.353)"/>
    <path id="Path_85" data-name="Path 85" class="cls-1" d="M959.033,751.248l4.114-1.186a53.894,53.894,0,0,0,1.865-5.781l-1.932-.07,2.106-.607c.61-2.43.86-4.079.86-4.079a51.645,51.645,0,0,0-14.627,7.334l-.775,5.439-.742-4.182a21.82,21.82,0,0,0-1.931,1.944c-6.049,6.955-8.681,14.568-5.88,17.005s9.977-1.225,16.026-8.18a28.7,28.7,0,0,0,4.491-7.508Z" transform="translate(-616.047 -455.739)"/>
    <path id="Path_86" data-name="Path 86" class="cls-2" d="M533.078,115.348V384.516a21.237,21.237,0,0,1-21.23,21.234H407.243A21.24,21.24,0,0,1,386,384.513V115.348a21.24,21.24,0,0,1,21.243-21.234h12.689a10.1,10.1,0,0,0,9.342,13.9H488.91a10.1,10.1,0,0,0,9.342-13.9h13.592a21.237,21.237,0,0,1,21.234,21.23Z" transform="translate(-305.095 -94.114)"/>
    <path id="Path_87" data-name="Path 87" class="cls-3" d="M506.341,334.266a10.5,10.5,0,0,1,5.255-9.1,10.505,10.505,0,1,0,0,18.194A10.5,10.5,0,0,1,506.341,334.266Z" transform="translate(-366.636 -222.785)"/>
    <path id="Path_88" data-name="Path 88" class="cls-3" d="M536.377,334.266a10.5,10.5,0,0,1,5.255-9.1,10.505,10.505,0,1,0,0,18.194A10.5,10.5,0,0,1,536.377,334.266Z" transform="translate(-383.465 -222.785)"/>
    <circle id="Ellipse_160" data-name="Ellipse 160" class="cls-4" cx="10.505" cy="10.505" r="10.505" transform="translate(155.312 100.976)"/>
    <rect id="Rectangle_255" data-name="Rectangle 255" class="cls-3" width="93.904" height="0.879" transform="translate(107.539 180.234)"/>
    <circle id="Ellipse_161" data-name="Ellipse 161" class="cls-3" cx="2.965" cy="2.965" r="2.965" transform="translate(107.539 168.812)"/>
    <rect id="Rectangle_256" data-name="Rectangle 256" class="cls-3" width="93.904" height="0.879" transform="translate(107.539 209.888)"/>
    <circle id="Ellipse_162" data-name="Ellipse 162" class="cls-3" cx="2.965" cy="2.965" r="2.965" transform="translate(107.539 198.466)"/>
    <path id="Path_89" data-name="Path 89" class="cls-3" d="M538.224,338.656H477a2.2,2.2,0,0,1-2.2-2.2V275.231a2.2,2.2,0,0,1,2.2-2.2h61.227a2.2,2.2,0,0,1,2.2,2.2v61.227A2.2,2.2,0,0,1,538.224,338.656ZM477,273.911a1.321,1.321,0,0,0-1.319,1.319v61.227A1.321,1.321,0,0,0,477,337.776h61.227a1.321,1.321,0,0,0,1.319-1.319V275.231a1.321,1.321,0,0,0-1.319-1.319Z" transform="translate(-354.85 -194.362)"/>
    <rect id="Rectangle_257" data-name="Rectangle 257" class="cls-3" width="33.114" height="13.838" rx="4" transform="translate(168.33 229.603)"/>
    <rect id="Rectangle_258" data-name="Rectangle 258" class="cls-5" width="349.65" height="0.879" transform="translate(0.35 311.204)"/>
    <path id="Path_90" data-name="Path 90" class="cls-6" d="M827.391,419.2s-1.217,7.709,0,8.926-7.709,11.361-7.709,11.361l-7.3-10.144s3.246-5.275,2.029-9.738Z" transform="translate(-543.996 -276.258)"/>
    <path id="Path_91" data-name="Path 91" class="cls-7" d="M576.9,456.286l-5.277,56.4,2.027,43.821,9.738-2.84.408-39.357,11.362-34.082,6.9,36.923-.813,37.329,12.173.406.813-41.386,1.426-57.8Z" transform="translate(-320.28 -255.327)"/>
    <path id="Path_92" data-name="Path 92" class="cls-7" d="M841.525,771.7v8.926s-2.029,6.492,4.463,6.086,6.086-3.246,6.086-3.246l-2.434-10.955Z" transform="translate(-560.158 -473.767)"/>
    <path id="Path_93" data-name="Path 93" class="cls-7" d="M786.01,771.7v8.926s2.029,6.492-4.463,6.086-6.086-3.246-6.086-3.246l2.435-10.955Z" transform="translate(-523.308 -473.767)"/>
    <circle id="Ellipse_163" data-name="Ellipse 163" class="cls-6" cx="9.332" cy="9.332" r="9.332" transform="translate(267.165 128.737)"/>
    <path id="Path_94" data-name="Path 94" class="cls-8" d="M815.951,442.823l.812-4.058h2.029l3.923-5.643,3.38,3.209.811,19.07H804.995l2.029-20.287,2.955-1.992s-.52,6.861,5.16,6.861Z" transform="translate(-539.859 -284.061)"/>
    <path id="Path_95" data-name="Path 95" class="cls-9" d="M805.879,444.517s3.36,4.254,8.375,3.953,9.884-4.359,9.884-4.359l6.9,52.747s-7.709.811-10.144-3.246l-18.665-.406.406-49.1Z" transform="translate(-538.308 -290.218)"/>
    <path id="Path_96" data-name="Path 96" class="cls-7" d="M794.141,431.531l-17.752,8.778,4.463,25.156s1.623,9.332,0,12.984-3.246,28-3.246,28,18.259,2.029,15.824-26.779S794.141,431.531,794.141,431.531Z" transform="translate(-523.831 -283.169)"/>
    <path id="Path_97" data-name="Path 97" class="cls-6" d="M792.076,563.406l2.434,2.434s7.3,12.578,10.549,8.115-5.68-12.172-5.68-12.172l-4.058-3.246Z" transform="translate(-532.621 -354.331)"/>
    <path id="Path_98" data-name="Path 98" class="cls-7" d="M845.314,431.531l17.572,8.778L856.8,470.334s.406,9.738,2.434,15.013,1.217,20.693,1.217,20.693-2.434,9.332-7.709-13.8S845.314,431.531,845.314,431.531Z" transform="translate(-562.45 -283.169)"/>
    <path id="Path_99" data-name="Path 99" class="cls-6" d="M856.87,536.059h-3.652s-12.172-1.623-11.361,3.246,12.172,3.652,12.172,3.652l4.463-.406Z" transform="translate(-560.491 -341.591)"/>
    <path id="Path_100" data-name="Path 100" class="cls-7" d="M768.752,448.725l-2.84,1.217s-2.84,6.086-3.246,8.115-5.275,26.374-4.058,29.214S772,505.124,772,505.124l6.9-7.3-10.144-13.8,2.84-17.447Z" transform="translate(-513.759 -292.803)"/>
    <path id="Path_101" data-name="Path 101" class="cls-7" d="M870.919,449.648l5.369.453,1.123.358s11.361,30.837,8.927,35.706-12.984,13.8-12.984,13.8l-2.84-12.578,5.275-4.869-5.275-16.23Z" transform="translate(-576.569 -293.321)"/>
    <path id="Path_102" data-name="Path 102" class="cls-7" d="M824.316,383.884s2.441-4.581-2.93-5c0,0-4.883-2.915-8.789.416,0,0-3.418-.833-4.395,1.666a1.71,1.71,0,0,1,.977-2.082s-3.418-.833-3.418,3.332a12.8,12.8,0,0,0,0,7.913c1.465,3.748,1.953,4.165,1.953,4.165s-2.407-7.859,3.452-8.275,12.417-4.011,12.905.57,1.465,5.831,1.465,5.831S829.932,385.758,824.316,383.884Z" transform="translate(-539.924 -253.011)"/>
  </g>
</svg>
