<svg version="1.2" xmlns="http://www.w3.org/2000/svg" viewBox="0 0 1500 560" width="1500" height="560">
	<title>slider_bg-svg</title>
	<defs>
		<clipPath clipPathUnits="userSpaceOnUse" id="cp1">
			<path d="m513 234h162v139h-162z"/>
		</clipPath>
		<clipPath clipPathUnits="userSpaceOnUse" id="cp2">
			<path d="m-272 0h1920v560h-1920z"/>
		</clipPath>
	</defs>
	<style>
		.s0 { fill: #fd475d } 
		.s1 { opacity: .3;fill: #ffffff } 
		.s2 { opacity: .2;fill: #ffffff } 
	</style>
	<g id="home_slider_bg">
		<path id="Rectangle_1" class="s0" d="m-272 0h1920v560h-1920z"/>
		<g id="Clip-Path: Repeat_Grid_2" clip-path="url(#cp1)">
			<g id="Repeat_Grid_2">
				<g id="Layer">
					<path id="Ellipse_7" class="s1" d="m516 240c-1.7 0-3-1.3-3-3 0-1.7 1.3-3 3-3 1.7 0 3 1.3 3 3 0 1.7-1.3 3-3 3z"/>
				</g>
				<g id="Layer">
					<path id="Ellipse_7-2" class="s1" d="m542 240c-1.7 0-3-1.3-3-3 0-1.7 1.3-3 3-3 1.7 0 3 1.3 3 3 0 1.7-1.3 3-3 3z"/>
				</g>
				<g id="Layer">
					<path id="Ellipse_7-3" class="s1" d="m568 240c-1.7 0-3-1.3-3-3 0-1.7 1.3-3 3-3 1.7 0 3 1.3 3 3 0 1.7-1.3 3-3 3z"/>
				</g>
				<g id="Layer">
					<path id="Ellipse_7-4" class="s1" d="m594 240c-1.7 0-3-1.3-3-3 0-1.7 1.3-3 3-3 1.7 0 3 1.3 3 3 0 1.7-1.3 3-3 3z"/>
				</g>
				<g id="Layer">
					<path id="Ellipse_7-5" class="s1" d="m620 240c-1.7 0-3-1.3-3-3 0-1.7 1.3-3 3-3 1.7 0 3 1.3 3 3 0 1.7-1.3 3-3 3z"/>
				</g>
				<g id="Layer">
					<path id="Ellipse_7-6" class="s1" d="m646 240c-1.7 0-3-1.3-3-3 0-1.7 1.3-3 3-3 1.7 0 3 1.3 3 3 0 1.7-1.3 3-3 3z"/>
				</g>
				<g id="Layer">
					<path id="Ellipse_7-7" class="s1" d="m672 240c-1.7 0-3-1.3-3-3 0-1.7 1.3-3 3-3 1.7 0 3 1.3 3 3 0 1.7-1.3 3-3 3z"/>
				</g>
				<g id="Layer">
					<path id="Ellipse_7-8" class="s1" d="m516 266c-1.7 0-3-1.3-3-3 0-1.7 1.3-3 3-3 1.7 0 3 1.3 3 3 0 1.7-1.3 3-3 3z"/>
				</g>
				<g id="Layer">
					<path id="Ellipse_7-9" class="s1" d="m542 266c-1.7 0-3-1.3-3-3 0-1.7 1.3-3 3-3 1.7 0 3 1.3 3 3 0 1.7-1.3 3-3 3z"/>
				</g>
				<g id="Layer">
					<path id="Ellipse_7-10" class="s1" d="m568 266c-1.7 0-3-1.3-3-3 0-1.7 1.3-3 3-3 1.7 0 3 1.3 3 3 0 1.7-1.3 3-3 3z"/>
				</g>
				<g id="Layer">
					<path id="Ellipse_7-11" class="s1" d="m594 266c-1.7 0-3-1.3-3-3 0-1.7 1.3-3 3-3 1.7 0 3 1.3 3 3 0 1.7-1.3 3-3 3z"/>
				</g>
				<g id="Layer">
					<path id="Ellipse_7-12" class="s1" d="m620 266c-1.7 0-3-1.3-3-3 0-1.7 1.3-3 3-3 1.7 0 3 1.3 3 3 0 1.7-1.3 3-3 3z"/>
				</g>
				<g id="Layer">
					<path id="Ellipse_7-13" class="s1" d="m646 266c-1.7 0-3-1.3-3-3 0-1.7 1.3-3 3-3 1.7 0 3 1.3 3 3 0 1.7-1.3 3-3 3z"/>
				</g>
				<g id="Layer">
					<path id="Ellipse_7-14" class="s1" d="m672 266c-1.7 0-3-1.3-3-3 0-1.7 1.3-3 3-3 1.7 0 3 1.3 3 3 0 1.7-1.3 3-3 3z"/>
				</g>
				<g id="Layer">
					<path id="Ellipse_7-15" class="s1" d="m516 292c-1.7 0-3-1.3-3-3 0-1.7 1.3-3 3-3 1.7 0 3 1.3 3 3 0 1.7-1.3 3-3 3z"/>
				</g>
				<g id="Layer">
					<path id="Ellipse_7-16" class="s1" d="m542 292c-1.7 0-3-1.3-3-3 0-1.7 1.3-3 3-3 1.7 0 3 1.3 3 3 0 1.7-1.3 3-3 3z"/>
				</g>
				<g id="Layer">
					<path id="Ellipse_7-17" class="s1" d="m568 292c-1.7 0-3-1.3-3-3 0-1.7 1.3-3 3-3 1.7 0 3 1.3 3 3 0 1.7-1.3 3-3 3z"/>
				</g>
				<g id="Layer">
					<path id="Ellipse_7-18" class="s1" d="m594 292c-1.7 0-3-1.3-3-3 0-1.7 1.3-3 3-3 1.7 0 3 1.3 3 3 0 1.7-1.3 3-3 3z"/>
				</g>
				<g id="Layer">
					<path id="Ellipse_7-19" class="s1" d="m620 292c-1.7 0-3-1.3-3-3 0-1.7 1.3-3 3-3 1.7 0 3 1.3 3 3 0 1.7-1.3 3-3 3z"/>
				</g>
				<g id="Layer">
					<path id="Ellipse_7-20" class="s1" d="m646 292c-1.7 0-3-1.3-3-3 0-1.7 1.3-3 3-3 1.7 0 3 1.3 3 3 0 1.7-1.3 3-3 3z"/>
				</g>
				<g id="Layer">
					<path id="Ellipse_7-21" class="s1" d="m672 292c-1.7 0-3-1.3-3-3 0-1.7 1.3-3 3-3 1.7 0 3 1.3 3 3 0 1.7-1.3 3-3 3z"/>
				</g>
				<g id="Layer">
					<path id="Ellipse_7-22" class="s1" d="m516 318c-1.7 0-3-1.3-3-3 0-1.7 1.3-3 3-3 1.7 0 3 1.3 3 3 0 1.7-1.3 3-3 3z"/>
				</g>
				<g id="Layer">
					<path id="Ellipse_7-23" class="s1" d="m542 318c-1.7 0-3-1.3-3-3 0-1.7 1.3-3 3-3 1.7 0 3 1.3 3 3 0 1.7-1.3 3-3 3z"/>
				</g>
				<g id="Layer">
					<path id="Ellipse_7-24" class="s1" d="m568 318c-1.7 0-3-1.3-3-3 0-1.7 1.3-3 3-3 1.7 0 3 1.3 3 3 0 1.7-1.3 3-3 3z"/>
				</g>
				<g id="Layer">
					<path id="Ellipse_7-25" class="s1" d="m594 318c-1.7 0-3-1.3-3-3 0-1.7 1.3-3 3-3 1.7 0 3 1.3 3 3 0 1.7-1.3 3-3 3z"/>
				</g>
				<g id="Layer">
					<path id="Ellipse_7-26" class="s1" d="m620 318c-1.7 0-3-1.3-3-3 0-1.7 1.3-3 3-3 1.7 0 3 1.3 3 3 0 1.7-1.3 3-3 3z"/>
				</g>
				<g id="Layer">
					<path id="Ellipse_7-27" class="s1" d="m646 318c-1.7 0-3-1.3-3-3 0-1.7 1.3-3 3-3 1.7 0 3 1.3 3 3 0 1.7-1.3 3-3 3z"/>
				</g>
				<g id="Layer">
					<path id="Ellipse_7-28" class="s1" d="m672 318c-1.7 0-3-1.3-3-3 0-1.7 1.3-3 3-3 1.7 0 3 1.3 3 3 0 1.7-1.3 3-3 3z"/>
				</g>
				<g id="Layer">
					<path id="Ellipse_7-29" class="s1" d="m516 344c-1.7 0-3-1.3-3-3 0-1.7 1.3-3 3-3 1.7 0 3 1.3 3 3 0 1.7-1.3 3-3 3z"/>
				</g>
				<g id="Layer">
					<path id="Ellipse_7-30" class="s1" d="m542 344c-1.7 0-3-1.3-3-3 0-1.7 1.3-3 3-3 1.7 0 3 1.3 3 3 0 1.7-1.3 3-3 3z"/>
				</g>
				<g id="Layer">
					<path id="Ellipse_7-31" class="s1" d="m568 344c-1.7 0-3-1.3-3-3 0-1.7 1.3-3 3-3 1.7 0 3 1.3 3 3 0 1.7-1.3 3-3 3z"/>
				</g>
				<g id="Layer">
					<path id="Ellipse_7-32" class="s1" d="m594 344c-1.7 0-3-1.3-3-3 0-1.7 1.3-3 3-3 1.7 0 3 1.3 3 3 0 1.7-1.3 3-3 3z"/>
				</g>
				<g id="Layer">
					<path id="Ellipse_7-33" class="s1" d="m620 344c-1.7 0-3-1.3-3-3 0-1.7 1.3-3 3-3 1.7 0 3 1.3 3 3 0 1.7-1.3 3-3 3z"/>
				</g>
				<g id="Layer">
					<path id="Ellipse_7-34" class="s1" d="m646 344c-1.7 0-3-1.3-3-3 0-1.7 1.3-3 3-3 1.7 0 3 1.3 3 3 0 1.7-1.3 3-3 3z"/>
				</g>
				<g id="Layer">
					<path id="Ellipse_7-35" class="s1" d="m672 344c-1.7 0-3-1.3-3-3 0-1.7 1.3-3 3-3 1.7 0 3 1.3 3 3 0 1.7-1.3 3-3 3z"/>
				</g>
				<g id="Layer">
					<path id="Ellipse_7-36" class="s1" d="m516 370c-1.7 0-3-1.3-3-3 0-1.7 1.3-3 3-3 1.7 0 3 1.3 3 3 0 1.7-1.3 3-3 3z"/>
				</g>
				<g id="Layer">
					<path id="Ellipse_7-37" class="s1" d="m542 370c-1.7 0-3-1.3-3-3 0-1.7 1.3-3 3-3 1.7 0 3 1.3 3 3 0 1.7-1.3 3-3 3z"/>
				</g>
				<g id="Layer">
					<path id="Ellipse_7-38" class="s1" d="m568 370c-1.7 0-3-1.3-3-3 0-1.7 1.3-3 3-3 1.7 0 3 1.3 3 3 0 1.7-1.3 3-3 3z"/>
				</g>
				<g id="Layer">
					<path id="Ellipse_7-39" class="s1" d="m594 370c-1.7 0-3-1.3-3-3 0-1.7 1.3-3 3-3 1.7 0 3 1.3 3 3 0 1.7-1.3 3-3 3z"/>
				</g>
				<g id="Layer">
					<path id="Ellipse_7-40" class="s1" d="m620 370c-1.7 0-3-1.3-3-3 0-1.7 1.3-3 3-3 1.7 0 3 1.3 3 3 0 1.7-1.3 3-3 3z"/>
				</g>
				<g id="Layer">
					<path id="Ellipse_7-41" class="s1" d="m646 370c-1.7 0-3-1.3-3-3 0-1.7 1.3-3 3-3 1.7 0 3 1.3 3 3 0 1.7-1.3 3-3 3z"/>
				</g>
				<g id="Layer">
					<path id="Ellipse_7-42" class="s1" d="m672 370c-1.7 0-3-1.3-3-3 0-1.7 1.3-3 3-3 1.7 0 3 1.3 3 3 0 1.7-1.3 3-3 3z"/>
				</g>
			</g>
		</g>
		<g id="Clip-Path: Mask_Group_3" clip-path="url(#cp2)">
			<g id="Mask_Group_3">
				<path id="Ellipse_5" class="s2" d="m1155 353c-125 0-226-101-226-226 0-125 101-226 226-226 125 0 226 101 226 226 0 125-101 226-226 226z"/>
				<path id="Ellipse_6" class="s2" d="m1184 628c-85.7 0-155-69.3-155-155 0-85.7 69.3-155 155-155 85.7 0 155 69.3 155 155 0 85.7-69.3 155-155 155z"/>
			</g>
		</g>
	</g>
</svg>