<svg version="1.2" xmlns="http://www.w3.org/2000/svg" viewBox="0 0 1500 560" width="1500" height="560">
	<title>slider-bg-svg</title>
	<defs>
		<clipPath clipPathUnits="userSpaceOnUse" id="cp1">
			<path d="m716 234h162v139h-162z"/>
		</clipPath>
		<clipPath clipPathUnits="userSpaceOnUse" id="cp2">
			<path d="m-272 0h1920v560h-1920z"/>
		</clipPath>
	</defs>
	<style>
		.s0 { fill: #fd475d } 
		.s1 { opacity: .3;fill: #ffffff } 
		.s2 { opacity: .2;fill: #ffffff } 
	</style>
	<g id="home_slider_bg">
		<path id="Rectangle_1" class="s0" d="m-272 0h1920v560h-1920z"/>
		<g id="Clip-Path: Clip-Path: Clip-Path: Repeat_Grid_2" clip-path="url(#cp1)">
			<g id="Clip-Path: Clip-Path: Repeat_Grid_2">
				<g id="Clip-Path: Repeat_Grid_2">
					<g id="Repeat_Grid_2">
						<g id="Layer">
							<path id="Ellipse_7" class="s1" d="m719 240c-1.7 0-3-1.3-3-3 0-1.7 1.3-3 3-3 1.7 0 3 1.3 3 3 0 1.7-1.3 3-3 3z"/>
						</g>
						<g id="Layer">
							<path id="Ellipse_7-2" class="s1" d="m745 240c-1.7 0-3-1.3-3-3 0-1.7 1.3-3 3-3 1.7 0 3 1.3 3 3 0 1.7-1.3 3-3 3z"/>
						</g>
						<g id="Layer">
							<path id="Ellipse_7-3" class="s1" d="m771 240c-1.7 0-3-1.3-3-3 0-1.7 1.3-3 3-3 1.7 0 3 1.3 3 3 0 1.7-1.3 3-3 3z"/>
						</g>
						<g id="Layer">
							<path id="Ellipse_7-4" class="s1" d="m797 240c-1.7 0-3-1.3-3-3 0-1.7 1.3-3 3-3 1.7 0 3 1.3 3 3 0 1.7-1.3 3-3 3z"/>
						</g>
						<g id="Layer">
							<path id="Ellipse_7-5" class="s1" d="m823 240c-1.7 0-3-1.3-3-3 0-1.7 1.3-3 3-3 1.7 0 3 1.3 3 3 0 1.7-1.3 3-3 3z"/>
						</g>
						<g id="Layer">
							<path id="Ellipse_7-6" class="s1" d="m849 240c-1.7 0-3-1.3-3-3 0-1.7 1.3-3 3-3 1.7 0 3 1.3 3 3 0 1.7-1.3 3-3 3z"/>
						</g>
						<g id="Layer">
							<path id="Ellipse_7-7" class="s1" d="m875 240c-1.7 0-3-1.3-3-3 0-1.7 1.3-3 3-3 1.7 0 3 1.3 3 3 0 1.7-1.3 3-3 3z"/>
						</g>
						<g id="Layer">
							<path id="Ellipse_7-8" class="s1" d="m719 266c-1.7 0-3-1.3-3-3 0-1.7 1.3-3 3-3 1.7 0 3 1.3 3 3 0 1.7-1.3 3-3 3z"/>
						</g>
						<g id="Layer">
							<path id="Ellipse_7-9" class="s1" d="m745 266c-1.7 0-3-1.3-3-3 0-1.7 1.3-3 3-3 1.7 0 3 1.3 3 3 0 1.7-1.3 3-3 3z"/>
						</g>
						<g id="Layer">
							<path id="Ellipse_7-10" class="s1" d="m771 266c-1.7 0-3-1.3-3-3 0-1.7 1.3-3 3-3 1.7 0 3 1.3 3 3 0 1.7-1.3 3-3 3z"/>
						</g>
						<g id="Layer">
							<path id="Ellipse_7-11" class="s1" d="m797 266c-1.7 0-3-1.3-3-3 0-1.7 1.3-3 3-3 1.7 0 3 1.3 3 3 0 1.7-1.3 3-3 3z"/>
						</g>
						<g id="Layer">
							<path id="Ellipse_7-12" class="s1" d="m823 266c-1.7 0-3-1.3-3-3 0-1.7 1.3-3 3-3 1.7 0 3 1.3 3 3 0 1.7-1.3 3-3 3z"/>
						</g>
						<g id="Layer">
							<path id="Ellipse_7-13" class="s1" d="m849 266c-1.7 0-3-1.3-3-3 0-1.7 1.3-3 3-3 1.7 0 3 1.3 3 3 0 1.7-1.3 3-3 3z"/>
						</g>
						<g id="Layer">
							<path id="Ellipse_7-14" class="s1" d="m875 266c-1.7 0-3-1.3-3-3 0-1.7 1.3-3 3-3 1.7 0 3 1.3 3 3 0 1.7-1.3 3-3 3z"/>
						</g>
						<g id="Layer">
							<path id="Ellipse_7-15" class="s1" d="m719 292c-1.7 0-3-1.3-3-3 0-1.7 1.3-3 3-3 1.7 0 3 1.3 3 3 0 1.7-1.3 3-3 3z"/>
						</g>
						<g id="Layer">
							<path id="Ellipse_7-16" class="s1" d="m745 292c-1.7 0-3-1.3-3-3 0-1.7 1.3-3 3-3 1.7 0 3 1.3 3 3 0 1.7-1.3 3-3 3z"/>
						</g>
						<g id="Layer">
							<path id="Ellipse_7-17" class="s1" d="m771 292c-1.7 0-3-1.3-3-3 0-1.7 1.3-3 3-3 1.7 0 3 1.3 3 3 0 1.7-1.3 3-3 3z"/>
						</g>
						<g id="Layer">
							<path id="Ellipse_7-18" class="s1" d="m797 292c-1.7 0-3-1.3-3-3 0-1.7 1.3-3 3-3 1.7 0 3 1.3 3 3 0 1.7-1.3 3-3 3z"/>
						</g>
						<g id="Layer">
							<path id="Ellipse_7-19" class="s1" d="m823 292c-1.7 0-3-1.3-3-3 0-1.7 1.3-3 3-3 1.7 0 3 1.3 3 3 0 1.7-1.3 3-3 3z"/>
						</g>
						<g id="Layer">
							<path id="Ellipse_7-20" class="s1" d="m849 292c-1.7 0-3-1.3-3-3 0-1.7 1.3-3 3-3 1.7 0 3 1.3 3 3 0 1.7-1.3 3-3 3z"/>
						</g>
						<g id="Layer">
							<path id="Ellipse_7-21" class="s1" d="m875 292c-1.7 0-3-1.3-3-3 0-1.7 1.3-3 3-3 1.7 0 3 1.3 3 3 0 1.7-1.3 3-3 3z"/>
						</g>
						<g id="Layer">
							<path id="Ellipse_7-22" class="s1" d="m719 318c-1.7 0-3-1.3-3-3 0-1.7 1.3-3 3-3 1.7 0 3 1.3 3 3 0 1.7-1.3 3-3 3z"/>
						</g>
						<g id="Layer">
							<path id="Ellipse_7-23" class="s1" d="m745 318c-1.7 0-3-1.3-3-3 0-1.7 1.3-3 3-3 1.7 0 3 1.3 3 3 0 1.7-1.3 3-3 3z"/>
						</g>
						<g id="Layer">
							<path id="Ellipse_7-24" class="s1" d="m771 318c-1.7 0-3-1.3-3-3 0-1.7 1.3-3 3-3 1.7 0 3 1.3 3 3 0 1.7-1.3 3-3 3z"/>
						</g>
						<g id="Layer">
							<path id="Ellipse_7-25" class="s1" d="m797 318c-1.7 0-3-1.3-3-3 0-1.7 1.3-3 3-3 1.7 0 3 1.3 3 3 0 1.7-1.3 3-3 3z"/>
						</g>
						<g id="Layer">
							<path id="Ellipse_7-26" class="s1" d="m823 318c-1.7 0-3-1.3-3-3 0-1.7 1.3-3 3-3 1.7 0 3 1.3 3 3 0 1.7-1.3 3-3 3z"/>
						</g>
						<g id="Layer">
							<path id="Ellipse_7-27" class="s1" d="m849 318c-1.7 0-3-1.3-3-3 0-1.7 1.3-3 3-3 1.7 0 3 1.3 3 3 0 1.7-1.3 3-3 3z"/>
						</g>
						<g id="Layer">
							<path id="Ellipse_7-28" class="s1" d="m875 318c-1.7 0-3-1.3-3-3 0-1.7 1.3-3 3-3 1.7 0 3 1.3 3 3 0 1.7-1.3 3-3 3z"/>
						</g>
						<g id="Layer">
							<path id="Ellipse_7-29" class="s1" d="m719 344c-1.7 0-3-1.3-3-3 0-1.7 1.3-3 3-3 1.7 0 3 1.3 3 3 0 1.7-1.3 3-3 3z"/>
						</g>
						<g id="Layer">
							<path id="Ellipse_7-30" class="s1" d="m745 344c-1.7 0-3-1.3-3-3 0-1.7 1.3-3 3-3 1.7 0 3 1.3 3 3 0 1.7-1.3 3-3 3z"/>
						</g>
						<g id="Layer">
							<path id="Ellipse_7-31" class="s1" d="m771 344c-1.7 0-3-1.3-3-3 0-1.7 1.3-3 3-3 1.7 0 3 1.3 3 3 0 1.7-1.3 3-3 3z"/>
						</g>
						<g id="Layer">
							<path id="Ellipse_7-32" class="s1" d="m797 344c-1.7 0-3-1.3-3-3 0-1.7 1.3-3 3-3 1.7 0 3 1.3 3 3 0 1.7-1.3 3-3 3z"/>
						</g>
						<g id="Layer">
							<path id="Ellipse_7-33" class="s1" d="m823 344c-1.7 0-3-1.3-3-3 0-1.7 1.3-3 3-3 1.7 0 3 1.3 3 3 0 1.7-1.3 3-3 3z"/>
						</g>
						<g id="Layer">
							<path id="Ellipse_7-34" class="s1" d="m849 344c-1.7 0-3-1.3-3-3 0-1.7 1.3-3 3-3 1.7 0 3 1.3 3 3 0 1.7-1.3 3-3 3z"/>
						</g>
						<g id="Layer">
							<path id="Ellipse_7-35" class="s1" d="m875 344c-1.7 0-3-1.3-3-3 0-1.7 1.3-3 3-3 1.7 0 3 1.3 3 3 0 1.7-1.3 3-3 3z"/>
						</g>
						<g id="Layer">
							<path id="Ellipse_7-36" class="s1" d="m719 370c-1.7 0-3-1.3-3-3 0-1.7 1.3-3 3-3 1.7 0 3 1.3 3 3 0 1.7-1.3 3-3 3z"/>
						</g>
						<g id="Layer">
							<path id="Ellipse_7-37" class="s1" d="m745 370c-1.7 0-3-1.3-3-3 0-1.7 1.3-3 3-3 1.7 0 3 1.3 3 3 0 1.7-1.3 3-3 3z"/>
						</g>
						<g id="Layer">
							<path id="Ellipse_7-38" class="s1" d="m771 370c-1.7 0-3-1.3-3-3 0-1.7 1.3-3 3-3 1.7 0 3 1.3 3 3 0 1.7-1.3 3-3 3z"/>
						</g>
						<g id="Layer">
							<path id="Ellipse_7-39" class="s1" d="m797 370c-1.7 0-3-1.3-3-3 0-1.7 1.3-3 3-3 1.7 0 3 1.3 3 3 0 1.7-1.3 3-3 3z"/>
						</g>
						<g id="Layer">
							<path id="Ellipse_7-40" class="s1" d="m823 370c-1.7 0-3-1.3-3-3 0-1.7 1.3-3 3-3 1.7 0 3 1.3 3 3 0 1.7-1.3 3-3 3z"/>
						</g>
						<g id="Layer">
							<path id="Ellipse_7-41" class="s1" d="m849 370c-1.7 0-3-1.3-3-3 0-1.7 1.3-3 3-3 1.7 0 3 1.3 3 3 0 1.7-1.3 3-3 3z"/>
						</g>
						<g id="Layer">
							<path id="Ellipse_7-42" class="s1" d="m875 370c-1.7 0-3-1.3-3-3 0-1.7 1.3-3 3-3 1.7 0 3 1.3 3 3 0 1.7-1.3 3-3 3z"/>
						</g>
					</g>
				</g>
			</g>
		</g>
		<g id="Clip-Path: Clip-Path: Clip-Path: Mask_Group_3" clip-path="url(#cp2)">
			<g id="Clip-Path: Clip-Path: Mask_Group_3">
				<g id="Clip-Path: Mask_Group_3">
					<g id="Mask_Group_3">
						<path id="Ellipse_5" class="s2" d="m1189 353c-125 0-226-101-226-226 0-125 101-226 226-226 125 0 226 101 226 226 0 125-101 226-226 226z"/>
						<path id="Ellipse_6" class="s2" d="m1218 628c-85.7 0-155-69.3-155-155 0-85.7 69.3-155 155-155 85.7 0 155 69.3 155 155 0 85.7-69.3 155-155 155z"/>
					</g>
				</g>
			</g>
		</g>
	</g>
</svg>