<svg xmlns="http://www.w3.org/2000/svg" xmlns:xlink="http://www.w3.org/1999/xlink" width="1920" height="560" viewBox="0 0 1920 560">
  <defs>
    <clipPath id="clip-path">
      <rect width="162" height="139" fill="none"/>
    </clipPath>
    <clipPath id="clip-path-2">
      <rect id="Rectangle_20" data-name="Rectangle 20" width="1920" height="560" transform="translate(0 155)" fill="#f5a416"/>
    </clipPath>
  </defs>
  <g id="home_slider_bg" data-name="home slider bg" transform="translate(0 -160)">
    <rect id="Rectangle_1" data-name="Rectangle 1" width="1920" height="560" transform="translate(0 160)" fill="#fd475d"/>
    <g id="Repeat_Grid_2" data-name="Repeat Grid 2" transform="translate(785 394)" clip-path="url(#clip-path)">
      <g transform="translate(-448 -167)">
        <circle id="Ellipse_7" data-name="Ellipse 7" cx="3" cy="3" r="3" transform="translate(448 167)" fill="#fff" opacity="0.3"/>
      </g>
      <g transform="translate(-422 -167)">
        <circle id="Ellipse_7-2" data-name="Ellipse 7" cx="3" cy="3" r="3" transform="translate(448 167)" fill="#fff" opacity="0.3"/>
      </g>
      <g transform="translate(-396 -167)">
        <circle id="Ellipse_7-3" data-name="Ellipse 7" cx="3" cy="3" r="3" transform="translate(448 167)" fill="#fff" opacity="0.3"/>
      </g>
      <g transform="translate(-370 -167)">
        <circle id="Ellipse_7-4" data-name="Ellipse 7" cx="3" cy="3" r="3" transform="translate(448 167)" fill="#fff" opacity="0.3"/>
      </g>
      <g transform="translate(-344 -167)">
        <circle id="Ellipse_7-5" data-name="Ellipse 7" cx="3" cy="3" r="3" transform="translate(448 167)" fill="#fff" opacity="0.3"/>
      </g>
      <g transform="translate(-318 -167)">
        <circle id="Ellipse_7-6" data-name="Ellipse 7" cx="3" cy="3" r="3" transform="translate(448 167)" fill="#fff" opacity="0.3"/>
      </g>
      <g transform="translate(-292 -167)">
        <circle id="Ellipse_7-7" data-name="Ellipse 7" cx="3" cy="3" r="3" transform="translate(448 167)" fill="#fff" opacity="0.3"/>
      </g>
      <g transform="translate(-448 -141)">
        <circle id="Ellipse_7-8" data-name="Ellipse 7" cx="3" cy="3" r="3" transform="translate(448 167)" fill="#fff" opacity="0.3"/>
      </g>
      <g transform="translate(-422 -141)">
        <circle id="Ellipse_7-9" data-name="Ellipse 7" cx="3" cy="3" r="3" transform="translate(448 167)" fill="#fff" opacity="0.3"/>
      </g>
      <g transform="translate(-396 -141)">
        <circle id="Ellipse_7-10" data-name="Ellipse 7" cx="3" cy="3" r="3" transform="translate(448 167)" fill="#fff" opacity="0.3"/>
      </g>
      <g transform="translate(-370 -141)">
        <circle id="Ellipse_7-11" data-name="Ellipse 7" cx="3" cy="3" r="3" transform="translate(448 167)" fill="#fff" opacity="0.3"/>
      </g>
      <g transform="translate(-344 -141)">
        <circle id="Ellipse_7-12" data-name="Ellipse 7" cx="3" cy="3" r="3" transform="translate(448 167)" fill="#fff" opacity="0.3"/>
      </g>
      <g transform="translate(-318 -141)">
        <circle id="Ellipse_7-13" data-name="Ellipse 7" cx="3" cy="3" r="3" transform="translate(448 167)" fill="#fff" opacity="0.3"/>
      </g>
      <g transform="translate(-292 -141)">
        <circle id="Ellipse_7-14" data-name="Ellipse 7" cx="3" cy="3" r="3" transform="translate(448 167)" fill="#fff" opacity="0.3"/>
      </g>
      <g transform="translate(-448 -115)">
        <circle id="Ellipse_7-15" data-name="Ellipse 7" cx="3" cy="3" r="3" transform="translate(448 167)" fill="#fff" opacity="0.3"/>
      </g>
      <g transform="translate(-422 -115)">
        <circle id="Ellipse_7-16" data-name="Ellipse 7" cx="3" cy="3" r="3" transform="translate(448 167)" fill="#fff" opacity="0.3"/>
      </g>
      <g transform="translate(-396 -115)">
        <circle id="Ellipse_7-17" data-name="Ellipse 7" cx="3" cy="3" r="3" transform="translate(448 167)" fill="#fff" opacity="0.3"/>
      </g>
      <g transform="translate(-370 -115)">
        <circle id="Ellipse_7-18" data-name="Ellipse 7" cx="3" cy="3" r="3" transform="translate(448 167)" fill="#fff" opacity="0.3"/>
      </g>
      <g transform="translate(-344 -115)">
        <circle id="Ellipse_7-19" data-name="Ellipse 7" cx="3" cy="3" r="3" transform="translate(448 167)" fill="#fff" opacity="0.3"/>
      </g>
      <g transform="translate(-318 -115)">
        <circle id="Ellipse_7-20" data-name="Ellipse 7" cx="3" cy="3" r="3" transform="translate(448 167)" fill="#fff" opacity="0.3"/>
      </g>
      <g transform="translate(-292 -115)">
        <circle id="Ellipse_7-21" data-name="Ellipse 7" cx="3" cy="3" r="3" transform="translate(448 167)" fill="#fff" opacity="0.3"/>
      </g>
      <g transform="translate(-448 -89)">
        <circle id="Ellipse_7-22" data-name="Ellipse 7" cx="3" cy="3" r="3" transform="translate(448 167)" fill="#fff" opacity="0.3"/>
      </g>
      <g transform="translate(-422 -89)">
        <circle id="Ellipse_7-23" data-name="Ellipse 7" cx="3" cy="3" r="3" transform="translate(448 167)" fill="#fff" opacity="0.3"/>
      </g>
      <g transform="translate(-396 -89)">
        <circle id="Ellipse_7-24" data-name="Ellipse 7" cx="3" cy="3" r="3" transform="translate(448 167)" fill="#fff" opacity="0.3"/>
      </g>
      <g transform="translate(-370 -89)">
        <circle id="Ellipse_7-25" data-name="Ellipse 7" cx="3" cy="3" r="3" transform="translate(448 167)" fill="#fff" opacity="0.3"/>
      </g>
      <g transform="translate(-344 -89)">
        <circle id="Ellipse_7-26" data-name="Ellipse 7" cx="3" cy="3" r="3" transform="translate(448 167)" fill="#fff" opacity="0.3"/>
      </g>
      <g transform="translate(-318 -89)">
        <circle id="Ellipse_7-27" data-name="Ellipse 7" cx="3" cy="3" r="3" transform="translate(448 167)" fill="#fff" opacity="0.3"/>
      </g>
      <g transform="translate(-292 -89)">
        <circle id="Ellipse_7-28" data-name="Ellipse 7" cx="3" cy="3" r="3" transform="translate(448 167)" fill="#fff" opacity="0.3"/>
      </g>
      <g transform="translate(-448 -63)">
        <circle id="Ellipse_7-29" data-name="Ellipse 7" cx="3" cy="3" r="3" transform="translate(448 167)" fill="#fff" opacity="0.3"/>
      </g>
      <g transform="translate(-422 -63)">
        <circle id="Ellipse_7-30" data-name="Ellipse 7" cx="3" cy="3" r="3" transform="translate(448 167)" fill="#fff" opacity="0.3"/>
      </g>
      <g transform="translate(-396 -63)">
        <circle id="Ellipse_7-31" data-name="Ellipse 7" cx="3" cy="3" r="3" transform="translate(448 167)" fill="#fff" opacity="0.3"/>
      </g>
      <g transform="translate(-370 -63)">
        <circle id="Ellipse_7-32" data-name="Ellipse 7" cx="3" cy="3" r="3" transform="translate(448 167)" fill="#fff" opacity="0.3"/>
      </g>
      <g transform="translate(-344 -63)">
        <circle id="Ellipse_7-33" data-name="Ellipse 7" cx="3" cy="3" r="3" transform="translate(448 167)" fill="#fff" opacity="0.3"/>
      </g>
      <g transform="translate(-318 -63)">
        <circle id="Ellipse_7-34" data-name="Ellipse 7" cx="3" cy="3" r="3" transform="translate(448 167)" fill="#fff" opacity="0.3"/>
      </g>
      <g transform="translate(-292 -63)">
        <circle id="Ellipse_7-35" data-name="Ellipse 7" cx="3" cy="3" r="3" transform="translate(448 167)" fill="#fff" opacity="0.3"/>
      </g>
      <g transform="translate(-448 -37)">
        <circle id="Ellipse_7-36" data-name="Ellipse 7" cx="3" cy="3" r="3" transform="translate(448 167)" fill="#fff" opacity="0.3"/>
      </g>
      <g transform="translate(-422 -37)">
        <circle id="Ellipse_7-37" data-name="Ellipse 7" cx="3" cy="3" r="3" transform="translate(448 167)" fill="#fff" opacity="0.3"/>
      </g>
      <g transform="translate(-396 -37)">
        <circle id="Ellipse_7-38" data-name="Ellipse 7" cx="3" cy="3" r="3" transform="translate(448 167)" fill="#fff" opacity="0.3"/>
      </g>
      <g transform="translate(-370 -37)">
        <circle id="Ellipse_7-39" data-name="Ellipse 7" cx="3" cy="3" r="3" transform="translate(448 167)" fill="#fff" opacity="0.3"/>
      </g>
      <g transform="translate(-344 -37)">
        <circle id="Ellipse_7-40" data-name="Ellipse 7" cx="3" cy="3" r="3" transform="translate(448 167)" fill="#fff" opacity="0.3"/>
      </g>
      <g transform="translate(-318 -37)">
        <circle id="Ellipse_7-41" data-name="Ellipse 7" cx="3" cy="3" r="3" transform="translate(448 167)" fill="#fff" opacity="0.3"/>
      </g>
      <g transform="translate(-292 -37)">
        <circle id="Ellipse_7-42" data-name="Ellipse 7" cx="3" cy="3" r="3" transform="translate(448 167)" fill="#fff" opacity="0.3"/>
      </g>
    </g>
    <g id="Mask_Group_3" data-name="Mask Group 3" transform="translate(0 5)" clip-path="url(#clip-path-2)">
      <circle id="Ellipse_5" data-name="Ellipse 5" cx="226" cy="226" r="226" transform="translate(1201 56)" fill="#fff" opacity="0.2"/>
      <circle id="Ellipse_6" data-name="Ellipse 6" cx="155" cy="155" r="155" transform="translate(1301 473)" fill="#fff" opacity="0.2"/>
    </g>
  </g>
</svg>
