<svg version="1.2" xmlns="http://www.w3.org/2000/svg" viewBox="0 0 100 100" width="40" height="40">
	<title>logo-svg</title>
	<style>
		.s0 { fill: #e53935 } 
		.s1 { fill: #b71c1c } 
		.s2 { fill: #1a1a1a } 
	</style>
	<g id="Layer_2" style="opacity: .5">
		<g id="Layer_1-2">
			<path id="Layer" class="s0" d="m72.7 60.2l-22.6 3.5v-28l22.6 3.5q1.9 0.3 3.5 1.3 1.6 1 2.8 2.5 1.2 1.4 1.8 3.2 0.6 1.8 0.6 3.7 0 1.8-0.7 3.6-0.6 1.7-1.8 3.1-1.2 1.4-2.8 2.3-1.6 0.9-3.4 1.3z"/>
			<path id="Layer" class="s1" d="m17.5 32.2v-16.1l32.6-16.1v26.4l-32.6 5.8z"/>
			<path id="Layer" class="s1" d="m3 55v-10.6l47.1-8.7v28l-47.1-8.7z"/>
			<path id="Layer" class="s1" d="m17.5 82.9v-15.4l32.6 5.5v26.4l-32.6-16.5z"/>
			<path id="Layer" class="s0" d="m74.9 12c3.5 1.7 6.7 3.8 9.6 6.4 2.9 2.6 5.4 5.6 7.4 8.9 2.1 3.3 3.7 6.8 4.7 10.5 1.1 3.8 1.6 7.6 1.6 11.5 0 3.8-0.5 7.5-1.5 11.2-1 3.6-2.6 7.1-4.5 10.3-2 3.3-4.4 6.2-7.2 8.8-2.7 2.6-5.8 4.8-9.2 6.5l-25.7 13.3v-26.4l22.5-4.4c2.2-0.4 4.3-1.2 6.3-2.4 1.9-1.1 3.6-2.6 5.1-4.4 1.4-1.7 2.6-3.7 3.3-5.8 0.8-2.2 1.2-4.4 1.2-6.7 0-2.3-0.4-4.6-1.2-6.8-0.8-2.1-2-4.2-3.5-5.9-1.5-1.8-3.3-3.3-5.3-4.4-2.1-1.1-4.3-1.9-6.5-2.3l-21.9-3.5v-26.4z"/>
			<path id="Layer" fill-rule="evenodd" class="s2" d="m140.2 37.1c0 7.6-5.5 13.1-13.5 13.1h-10.5v-26.1h10.5c7.9 0 13.5 5.4 13.5 13zm-7.4 0q0.1-1.3-0.3-2.5-0.5-1.3-1.4-2.2-1-0.9-2.2-1.4-1.2-0.4-2.5-0.4h-3v13h3q1.3 0 2.5-0.4 1.2-0.5 2.2-1.4 0.9-1 1.4-2.2 0.4-1.2 0.3-2.5z"/>
			<path id="Layer" class="s2" d="m154.9 40v10.2h-7.3v-10.3l-9-15.8h7.9l4.8 9.4 4.8-9.4h7.9z"/>
			<path id="Layer" class="s2" d="m189.1 24.1v26.1h-5.9l-10.4-14.2v14.2h-6.9v-26.1h6.3l10 13.6v-13.6z"/>
			<path id="Layer" fill-rule="evenodd" class="s2" d="m209.1 45.9h-9.2l-1.5 4.3h-7.6l10.2-26.1h7.1l10.4 26.1h-7.9zm-4.6-13.7l-2.9 8.1h5.8z"/>
			<path id="Layer" class="s2" d="m245.9 50.2l-2.1-15.1-6.9 15.1h-2.1l-6.9-15.1-2 15.1h-7.3l3.9-26.1h7.2l6.1 14.2 6.2-14.2h7.2l3.9 26.1z"/>
			<path id="Layer" class="s2" d="m255.7 24.1h7.3v26.1h-7.3z"/>
			<path id="Layer" class="s2" d="m265.8 37.1c-0.1-1.8 0.3-3.6 1-5.3 0.6-1.7 1.7-3.2 3-4.5 1.3-1.3 2.8-2.3 4.5-3 1.7-0.6 3.5-1 5.4-0.9 1.5 0 3.1 0.2 4.6 0.7 1.5 0.5 2.9 1.3 4.1 2.3 1.2 1.1 2.2 2.3 3 3.7 0.7 1.3 1.2 2.8 1.5 4.4h-7.3q-0.3-0.9-0.9-1.8-0.6-0.8-1.4-1.4-0.8-0.6-1.7-0.9-0.9-0.3-1.9-0.3c-3.7 0-6.4 2.9-6.4 7 0 4 2.7 6.9 6.4 6.9q1 0 2-0.3 1-0.4 1.8-1 0.8-0.7 1.3-1.5 0.6-0.9 0.8-2h7.3c-0.2 1.6-0.6 3.2-1.4 4.6-0.7 1.5-1.7 2.7-3 3.8-1.2 1.1-2.6 1.9-4.1 2.4-1.5 0.6-3.1 0.8-4.7 0.8-1.9 0.1-3.7-0.2-5.4-0.9-1.7-0.7-3.2-1.7-4.5-2.9-1.3-1.3-2.3-2.9-3-4.6-0.7-1.6-1.1-3.5-1-5.3z"/>
			<path id="Layer" class="s0" d="m119.2 69.1v4.2h6.8v2.5h-9.3v-15.3h9.1v2.4h-6.6v3.7h6.1v2.5h-6.1z"/>
			<path id="Layer" class="s0" d="m146 60.5l-5.2 7.4 5.6 7.9h-3l-4.1-5.9-4.2 5.9h-3l5.6-8-5.1-7.3h3l3.7 5.3 3.7-5.3h3z"/>
			<path id="Layer" fill-rule="evenodd" class="s0" d="m159.1 60.5c1.4 0 2.6 0.5 3.6 1.4 0.9 1 1.4 2.2 1.4 3.5 0 1.4-0.5 2.6-1.4 3.6-1 0.9-2.2 1.4-3.6 1.4h-2.9v5.4h-2.5v-15.3h5.4zm-2.9 7.5h2.9c0.7 0 1.4-0.2 1.9-0.7 0.5-0.5 0.8-1.1 0.8-1.8 0-0.7-0.3-1.4-0.8-1.9-0.5-0.4-1.2-0.7-1.9-0.6h-2.9z"/>
			<path id="Layer" fill-rule="evenodd" class="s0" d="m183.6 66.6q-0.2 0.7-0.6 1.3-0.4 0.6-1 1-0.6 0.5-1.2 0.7l3.7 6.2h-2.9l-3.5-5.8h-2.7v5.8h-2.5v-15.3h5.8q1-0.1 1.9 0.3 0.9 0.3 1.7 1 0.7 0.7 1.1 1.6 0.3 0.9 0.4 1.8 0 0.7-0.2 1.4zm-8.2 0.8h3.3q0.5 0.1 1 0 0.4-0.2 0.8-0.5 0.4-0.3 0.6-0.8 0.2-0.4 0.2-0.9 0-0.5-0.2-0.9-0.2-0.5-0.6-0.8-0.4-0.3-0.8-0.5-0.5-0.1-1-0.1h-3.3z"/>
			<path id="Layer" class="s0" d="m195.3 69.1v4.2h6.8v2.5h-9.3v-15.3h9.1v2.4h-6.6v3.7h6.1v2.5h-6.1z"/>
			<path id="Layer" class="s0" d="m220.9 71.2c0 2.8-2.2 4.8-5.4 4.8-3.3 0-5.6-2.1-5.6-5.1v-0.9h2.5v0.9c0 1.6 1.2 2.5 3.1 2.5 1.8 0 2.9-0.9 2.9-2.2 0-1.2-1-1.6-3.1-2.1-2.2-0.4-5.1-1.1-5.1-4.3 0-2.7 2.2-4.5 5.2-4.5 3.1 0 5.2 1.9 5.2 4.7v0.9h-2.5v-0.9c0-1.6-1.3-2.2-2.7-2.2-1.3 0-2.7 0.5-2.7 2 0 1.2 0.9 1.5 3.1 2 2.2 0.4 5.1 1.1 5.1 4.4z"/>
			<path id="Layer" class="s0" d="m239.8 71.2c0 2.8-2.2 4.8-5.3 4.8-3.5 0-5.7-2.1-5.7-5.1v-0.9h2.5v0.9c0 1.6 1.2 2.5 3.2 2.5 1.7 0 2.9-0.9 2.9-2.2 0-1.2-1-1.6-3.2-2.1-2.2-0.4-5.1-1.1-5.1-4.3 0-2.7 2.2-4.5 5.3-4.5 3 0 5.1 1.9 5.1 4.7v0.9h-2.5v-0.9c0-1.6-1.3-2.2-2.6-2.2-1.4 0-2.8 0.5-2.8 2 0 1.2 0.9 1.5 3.1 2 2.2 0.4 5.1 1.1 5.1 4.4z"/>
			<path id="Layer" class="s0" d="m245.5 62.3c0-0.9 0.6-1.7 1.3-1.7l41.3 1.7-41.3 1.8c-0.7 0-1.3-0.8-1.3-1.8z"/>
			<path id="Layer" class="s0" d="m245.5 68.1c0-0.9 0.6-1.7 1.3-1.7l54.7 1.7-54.7 1.8c-0.7 0-1.3-0.8-1.3-1.8z"/>
			<path id="Layer" class="s0" d="m246.8 72.2l41.3 1.8-41.3 1.7c-0.7 0-1.3-0.8-1.3-1.7 0-1 0.6-1.8 1.3-1.8z"/>
		</g>
	</g>
</svg>