<svg xmlns="http://www.w3.org/2000/svg" viewBox="0 0 268.65 89.43"><defs><style>.cls-1{fill:#e53935;}.cls-2{fill:#b71c1c;}.cls-3{fill:#1a1a1a;}</style></defs><g id="Layer_2" data-name="Layer 2"><g id="Layer_1-2" data-name="Layer 1"><path class="cls-1" d="M62.74,54.16,42.39,57.29V32.14l20.35,3.13a9.63,9.63,0,0,1,7.82,9.65h0A9.62,9.62,0,0,1,62.74,54.16Z"/><polygon class="cls-2" points="13.04 29 42.39 23.75 42.39 0 13.04 14.5 13.04 29"/><polygon class="cls-2" points="0 49.49 42.39 57.29 42.39 32.14 0 39.94 0 49.49"/><polygon class="cls-2" points="13.04 74.64 42.39 89.43 42.39 65.67 13.04 60.78 13.04 74.64"/><path class="cls-1" d="M42.39,0V23.75l19.67,3.18A17.68,17.68,0,0,1,76.93,44.39h0A17.69,17.69,0,0,1,62.6,61.76L42.39,65.68V89.43L65.51,77.49A37.29,37.29,0,0,0,85.7,44.35h0a37.3,37.3,0,0,0-21-33.58Z"/><path class="cls-3" d="M123.49,33.38c0,6.85-5,11.76-12.12,11.76h-9.51V21.65h9.51C118.48,21.65,123.49,26.51,123.49,33.38Zm-6.63,0a5.47,5.47,0,0,0-5.8-5.8h-2.7V39.21h2.7A5.51,5.51,0,0,0,116.86,33.38Z"/><path class="cls-3" d="M136.71,36v9.19h-6.59V35.93L122,21.65h7.18l4.29,8.49,4.3-8.49h7.17Z"/><path class="cls-3" d="M167.53,21.65V45.14h-5.35l-9.33-12.75V45.14h-6.28V21.65h5.67l9,12.32V21.65Z"/><path class="cls-3" d="M185.51,41.32h-8.32l-1.3,3.82H169l9.23-23.49h6.32l9.43,23.49h-7.12ZM181.34,29l-2.58,7.28h5.17Z"/><path class="cls-3" d="M218.57,45.14l-1.83-13.53-6.23,13.57H208.6l-6.22-13.56-1.81,13.52H194l3.55-23.49H204l5.53,12.78,5.56-12.78h6.46l3.52,23.49Z"/><path class="cls-3" d="M227.45,21.65H234V45.14h-6.56Z"/><path class="cls-3" d="M236.49,33.41A12.12,12.12,0,0,1,249,21.06a11.67,11.67,0,0,1,11.88,10H254.3a5.57,5.57,0,0,0-5.31-4c-3.32,0-5.76,2.68-5.76,6.31s2.44,6.26,5.76,6.26a5.41,5.41,0,0,0,5.32-4.31h6.61A11.72,11.72,0,0,1,249,45.73,12.11,12.11,0,0,1,236.49,33.41Z"/><polygon class="cls-1" points="104.55 62.16 110.06 62.16 110.06 59.96 104.55 59.96 104.55 56.65 110.51 56.65 110.51 54.43 102.31 54.43 102.31 68.23 110.69 68.23 110.69 66.01 104.55 66.01 104.55 62.16"/><polygon class="cls-1" points="128.67 54.43 125.97 54.43 122.63 59.18 119.3 54.43 116.6 54.43 121.26 61.06 116.22 68.23 118.92 68.23 122.63 62.95 126.34 68.23 129.04 68.23 124 61.07 128.67 54.43"/><path class="cls-1" d="M140.53,54.43h-4.92v13.8h2.23V63.4h2.69a4.49,4.49,0,1,0,0-9Zm-2.69,2.22h2.67a2.27,2.27,0,1,1,0,4.53h-2.67Z"/><path class="cls-1" d="M162.68,58.71a4.31,4.31,0,0,0-4.52-4.28h-5.24v13.8h2.24V63h2.41l3.15,5.26h2.59L160,62.64A4.12,4.12,0,0,0,162.68,58.71Zm-7.52-2.07h3a2.1,2.1,0,0,1,2.3,2.06,2.06,2.06,0,0,1-2.3,2h-3Z"/><polygon class="cls-1" points="173.06 62.16 178.57 62.16 178.57 59.96 173.06 59.96 173.06 56.65 179.02 56.65 179.02 54.43 170.82 54.43 170.82 68.23 179.21 68.23 179.21 66.01 173.06 66.01 173.06 62.16"/><path class="cls-1" d="M191.52,60.08c-2-.44-2.82-.72-2.82-1.77,0-1.33,1.28-1.8,2.49-1.8s2.39.52,2.39,2v.83h2.23V58.5c0-2.52-1.86-4.21-4.61-4.21s-4.74,1.62-4.74,4c0,2.93,2.64,3.51,4.58,3.93s2.84.75,2.84,1.88-1,2-2.59,2c-1.76,0-2.85-.89-2.85-2.32V63H186.2v.83c0,2.72,2.05,4.54,5.09,4.54,2.85,0,4.84-1.74,4.84-4.25C196.13,61.11,193.48,60.52,191.52,60.08Z"/><path class="cls-1" d="M208.56,60.08c-2-.44-2.82-.72-2.82-1.77,0-1.33,1.28-1.8,2.48-1.8s2.39.52,2.39,2v.83h2.23V58.5c0-2.52-1.85-4.21-4.61-4.21s-4.73,1.62-4.73,4c0,2.93,2.63,3.51,4.58,3.93s2.84.75,2.84,1.88-1,2-2.59,2c-1.76,0-2.85-.89-2.85-2.32V63h-2.24v.83c0,2.72,2,4.54,5.09,4.54,2.85,0,4.83-1.74,4.83-4.25C213.16,61.11,210.52,60.52,208.56,60.08Z"/><path class="cls-1" d="M219.45,57.65h0L256.6,56.1l-37.15-1.56c-.66,0-1.18.68-1.18,1.56S218.79,57.65,219.45,57.65Z"/><path class="cls-1" d="M219.45,62.88h0l49.19-1.55-49.2-1.55c-.66,0-1.18.68-1.18,1.55S218.79,62.88,219.45,62.88Z"/><path class="cls-1" d="M218.27,66.57c0,.87.52,1.55,1.18,1.55h0l37.14-1.55L219.45,65C218.79,65,218.27,65.7,218.27,66.57Z"/></g></g></svg>