<svg xmlns="http://www.w3.org/2000/svg" width="260" height="86.554" viewBox="0 0 260 86.554">
  <g id="ag_loqo" data-name="ag loqo" transform="translate(-14446 649)">
    <path id="Path_235" data-name="Path 235" d="M62.109,53.477,42.39,56.51V32.14l19.719,3.033a9.331,9.331,0,0,1,7.578,9.351h0a9.322,9.322,0,0,1-7.578,8.954Z" transform="translate(14444.631 -650.048)" fill="#fff"/>
    <path id="Path_236" data-name="Path 236" d="M13.04,28.1l28.44-5.087V0L13.04,14.05Z" transform="translate(14445.596 -649)" fill="#ccc"/>
    <path id="Path_237" data-name="Path 237" d="M0,48.952,41.076,56.51V32.14L0,39.7Z" transform="translate(14446 -650.048)" fill="#ccc"/>
    <path id="Path_238" data-name="Path 238" d="M13.04,74.21,41.48,88.542V65.518L13.04,60.78Z" transform="translate(14445.596 -650.988)" fill="#ccc"/>
    <path id="Path_239" data-name="Path 239" d="M42.39,0V22.986l19.06,3.078a17.118,17.118,0,0,1,14.409,16.9h0A17.127,17.127,0,0,1,61.971,59.774L42.39,63.568V86.554L64.793,75A36.086,36.086,0,0,0,84.357,42.924h0a36.1,36.1,0,0,0-20.349-32.5Z" transform="translate(14444.627 -649)" fill="#fff"/>
    <path id="Path_240" data-name="Path 240" d="M122.819,33.016c0,6.638-4.845,11.4-11.744,11.4H101.86V21.65h9.215C117.965,21.65,122.819,26.359,122.819,33.016Zm-6.424,0a5.3,5.3,0,0,0-5.62-5.62h-2.616V38.666h2.616a5.339,5.339,0,0,0,5.62-5.649Z" transform="translate(14442.714 -649.705)" fill="#fff"/>
    <path id="Path_241" data-name="Path 241" d="M136.254,35.555V44.46h-6.386V35.487L122,21.65h6.957l4.157,8.227,4.167-8.227h6.948Z" transform="translate(14442.063 -649.705)" fill="#fff"/>
    <path id="Path_242" data-name="Path 242" d="M166.88,21.65V44.412H161.7l-9.041-12.355V44.412H146.57V21.65h5.494l8.721,11.938V21.65Z" transform="translate(14441.272 -649.705)" fill="#fff"/>
    <path id="Path_243" data-name="Path 243" d="M185,40.71h-8.062l-1.26,3.7H169l8.944-22.762h6.124l9.138,22.762h-6.9Zm-4.041-11.938-2.5,7.054h5.01Z" transform="translate(14440.544 -649.705)" fill="#fff"/>
    <path id="Path_244" data-name="Path 244" d="M217.808,44.412,216.035,31.3,210,44.45h-1.851l-6.027-13.14-1.754,13.1H194l3.44-22.762h6.25l5.359,12.384,5.388-12.384h6.26l3.411,22.762Z" transform="translate(14439.731 -649.705)" fill="#fff"/>
    <path id="Path_245" data-name="Path 245" d="M227.45,21.65H233.8V44.412H227.44Z" transform="translate(14438.638 -649.705)" fill="#fff"/>
    <path id="Path_246" data-name="Path 246" d="M236.49,33.027A11.744,11.744,0,0,1,248.612,21.06a11.308,11.308,0,0,1,11.512,9.69h-6.376a5.4,5.4,0,0,0-5.145-3.876c-3.217,0-5.581,2.6-5.581,6.114s2.364,6.066,5.581,6.066a5.242,5.242,0,0,0,5.155-4.176h6.405a11.357,11.357,0,0,1-11.55,10.087A11.735,11.735,0,0,1,236.49,33.027Z" transform="translate(14438.357 -649.686)" fill="#fff"/>
    <path id="Path_247" data-name="Path 247" d="M104.481,61.92h5.339V59.789h-5.339V56.581h5.775V54.43H102.31V67.8h8.12V65.651h-5.95Z" transform="translate(14442.706 -650.762)" fill="#fff"/>
    <path id="Path_248" data-name="Path 248" d="M128.284,54.43h-2.616l-3.236,4.6-3.227-4.6h-2.616l4.516,6.424L116.22,67.8h2.616l3.595-5.116,3.595,5.116h2.616l-4.884-6.938Z" transform="translate(14442.256 -650.762)" fill="#fff"/>
    <path id="Path_249" data-name="Path 249" d="M140.377,54.429H135.61V67.8h2.161v-4.68h2.607a4.36,4.36,0,1,0,0-8.721Zm-2.607,2.151h2.587a2.2,2.2,0,1,1,0,4.39h-2.587Z" transform="translate(14441.634 -650.761)" fill="#fff"/>
    <path id="Path_250" data-name="Path 250" d="M162.377,58.577A4.176,4.176,0,0,0,158,54.43H152.92V67.8h2.171V62.734h2.335l3.052,5.1h2.51l-3.207-5.446a3.992,3.992,0,0,0,2.6-3.808Zm-7.287-2.006H158a2.035,2.035,0,0,1,2.229,2A2,2,0,0,1,158,60.505h-2.907Z" transform="translate(14441.075 -650.762)" fill="#fff"/>
    <path id="Path_251" data-name="Path 251" d="M172.991,61.92h5.339V59.789h-5.339V56.581h5.775V54.43H170.82V67.8h8.13V65.651h-5.959Z" transform="translate(14440.5 -650.762)" fill="#fff"/>
    <path id="Path_252" data-name="Path 252" d="M191.355,59.9c-1.938-.426-2.733-.7-2.733-1.715,0-1.289,1.24-1.744,2.413-1.744s2.316.5,2.316,1.938v.8h2.161v-.814c0-2.442-1.8-4.079-4.467-4.079s-4.593,1.57-4.593,3.876c0,2.839,2.558,3.4,4.438,3.808s2.752.727,2.752,1.822-.969,1.938-2.51,1.938c-1.705,0-2.762-.862-2.762-2.248V62.73H186.2v.8c0,2.636,1.986,4.4,4.932,4.4,2.762,0,4.69-1.686,4.69-4.118C195.822,60.9,193.254,60.327,191.355,59.9Z" transform="translate(14440.003 -650.758)" fill="#fff"/>
    <path id="Path_253" data-name="Path 253" d="M208.4,59.9c-1.938-.426-2.733-.7-2.733-1.715,0-1.289,1.24-1.744,2.4-1.744s2.316.5,2.316,1.938v.8h2.161v-.814c0-2.442-1.793-4.079-4.467-4.079s-4.583,1.57-4.583,3.876c0,2.839,2.548,3.4,4.438,3.808s2.752.727,2.752,1.822-.969,1.938-2.51,1.938c-1.705,0-2.762-.862-2.762-2.248V62.73H203.24v.8c0,2.636,1.938,4.4,4.932,4.4,2.762,0,4.68-1.686,4.68-4.118C212.852,60.9,210.294,60.327,208.4,59.9Z" transform="translate(14439.454 -650.758)" fill="#fff"/>
    <path id="Path_254" data-name="Path 254" d="M219.413,57.554h0l36-1.5-36-1.512c-.64,0-1.143.659-1.143,1.512S218.774,57.554,219.413,57.554Z" transform="translate(14438.922 -650.756)" fill="#fff"/>
    <path id="Path_255" data-name="Path 255" d="M219.413,62.784h0l47.665-1.5L219.4,59.78c-.64,0-1.143.659-1.143,1.5A1.352,1.352,0,0,0,219.413,62.784Z" transform="translate(14438.922 -650.925)" fill="#fff"/>
    <path id="Path_256" data-name="Path 256" d="M218.27,66.521c0,.843.5,1.5,1.143,1.5h0l35.988-1.5L219.413,65C218.774,65,218.27,65.678,218.27,66.521Z" transform="translate(14438.922 -651.093)" fill="#fff"/>
  </g>
</svg>
